<?xml version="1.0" encoding="UTF-8"?>
<svg xmlns="http://www.w3.org/2000/svg" xmlns:xlink="http://www.w3.org/1999/xlink" width="512" height="512" viewBox="0 0 60 60" version="1.1"><!-- Generator: Sketch 51.3 (57544) - http://www.bohemiancoding.com/sketch --><title>007 - Car Insurance</title><desc>Created with Sketch.</desc><defs/><g id="Page-1" stroke="none" stroke-width="1" fill="none" fill-rule="evenodd"><g id="007---Car-Insurance" fill="#000000" fill-rule="nonzero"><path d="M36.608,26.523 L44.42,32.084 C44.7671643,32.331178 45.2328357,32.331178 45.58,32.084 L53.392,26.523 C55.0194082,25.3703573 55.9905824,23.5032302 56,21.509 L56,9.677 C56.000591,9.27883898 55.7649212,8.91826415 55.4,8.759 L45.4,4.439 C45.1472508,4.33000068 44.8607492,4.33000068 44.608,4.439 L34.608,8.759 C34.2430788,8.91826415 34.007409,9.27883898 34.008,9.677 L34.008,21.509 C34.0157405,23.5017345 34.9837499,25.3685034 36.608,26.523 Z M36,10.334 L45,6.447 L54,10.334 L54,21.509 C53.9926973,22.8587211 53.3337961,24.1217704 52.231,24.9 L45,30.042 L37.769,24.894 C36.6675346,24.1173365 36.0087381,22.8567225 36,21.509 L36,10.334 Z" id="Shape"/><path d="M42.4,23.8 C42.8320438,24.1242308 43.4434866,24.0467489 43.781,23.625 L51.781,13.625 C52.126178,13.1936656 52.0563344,12.564178 51.625,12.219 C51.1936656,11.873822 50.564178,11.9436656 50.219,12.375 L42.819,21.619 L39.6,19.2 C39.3141875,18.9856406 38.9357266,18.9400436 38.6071797,19.0803848 C38.2786328,19.2207259 38.0499141,19.5256842 38.0071797,19.8803848 C37.9644453,20.2350853 38.1141875,20.5856406 38.4,20.8 L42.4,23.8 Z" id="Shape"/><path d="M2,53 L3,53 L3,57 C3,58.6568542 4.34314575,60 6,60 L12,60 C13.6568542,60 15,58.6568542 15,57 L15,53 L39,53 L39,57 C39,58.6568542 40.3431458,60 42,60 L48,60 C49.6568542,60 51,58.6568542 51,57 L51,53 L52,53 C53.1045695,53 54,52.1045695 54,51 L54,36 C54.0037172,34.5507379 53.3717372,33.1727364 52.271,32.23 L55.711,29.782 C58.3919763,27.8780755 59.9891906,24.7972284 60,21.509 L60,7.048 C60.000591,6.64983898 59.7649212,6.28926415 59.4,6.13 L45.4,0.082 C45.1472508,-0.0269993194 44.8607492,-0.0269993194 44.608,0.082 L30.6,6.13 C30.2350788,6.28926415 29.999409,6.64983898 30,7.048 L30,11 L14.87,11 C12.7498899,11.0007177 10.8607245,12.3384424 10.156,14.338 L4.266,31.074 C1.82080516,31.4338552 0.00682716846,33.5284768 0,36 L0,51 C2.50256039e-17,52.1045695 0.8954305,53 2,53 Z M13,57 C13,57.5522847 12.5522847,58 12,58 L6,58 C5.44771525,58 5,57.5522847 5,57 L5,53 L13,53 L13,57 Z M9,51 L7,51 L7,49 L9,49 L9,51 Z M49,57 C49,57.5522847 48.5522847,58 48,58 L42,58 C41.4477153,58 41,57.5522847 41,57 L41,53 L49,53 L49,57 Z M47,51 L45,51 L45,49 L47,49 L47,51 Z M32,7.705 L45,2.089 L58,7.705 L58,21.505 C57.990098,24.1465378 56.7056533,26.6208348 54.551,28.149 L45,34.952 L35.449,28.152 C33.2946331,26.6240398 32.0102243,24.1501843 32,21.509 L32,7.705 Z M47,37 C47.5522847,37 48,37.4477153 48,38 L48,40 C48,40.5522847 47.5522847,41 47,41 L41,41 C40.4477153,41 40,40.5522847 40,40 C40,38.3431458 41.3431458,37 43,37 L47,37 Z M30,17 L30,19 L23,19 L23,17 L30,17 Z M30,15 L28,15 L28,13 L30,13 L30,15 Z M12.043,15 C12.4666083,13.8018543 13.5991748,13.0006046 14.87,13 L26,13 L26,15 L23,15 C21.8954305,15 21,15.8954305 21,17 L21,19 C21,20.1045695 21.8954305,21 23,21 L30,21 L30,21.509 C30.0108094,24.7972284 31.6080237,27.8780755 34.289,29.782 L36,31 L6.412,31 L12.043,15 Z M2,36 C2,34.3431458 3.34314575,33 5,33 L38.81,33 L41.832,35.152 C39.5894037,35.6907678 38.006305,37.6936025 38,40 C38,41.6568542 39.3431458,43 41,43 L47,43 C48.6568542,43 50,41.6568542 50,40 L50,38 C49.9967362,36.7647376 49.2366501,35.6577505 48.085,35.211 L50.561,33.448 C51.4578368,33.9847039 52.0048731,34.9548476 52,36 L52.0000323,51 L49,51 L49,49 C49,47.8954305 48.1045695,47 47,47 L45,47 C43.8954305,47 43,47.8954305 43,49 L43,51 L11,51 L11,49 C11,47.8954305 10.1045695,47 9,47 L7,47 C5.8954305,47 5,47.8954305 5,49 L5,51 L2,51 L2,36 Z" id="Shape"/><path d="M18,15 L16.289,15 C15.017739,15.0014261 13.884726,15.802142 13.459,17 L9.705,27.668 C9.52164148,28.1890807 9.79541936,28.7601414 10.3165,28.9435 C10.8375807,29.1268585 11.4086415,28.8530806 11.592,28.332 L15.346,17.668 C15.4868342,17.2678614 15.8648006,17.0001185 16.289,17 L18,17 C18.5522847,17 19,16.5522847 19,16 C19,15.4477153 18.5522847,15 18,15 Z" id="Shape"/><path d="M7,43 L13,43 C14.6568542,43 16,41.6568542 16,40 C15.9966939,37.2399468 13.7600532,35.0033061 11,35 L7,35 C5.34314575,35 4,36.3431458 4,38 L4,40 C4,41.6568542 5.34314575,43 7,43 Z M6,38 C6,37.4477153 6.44771525,37 7,37 L11,37 C12.6568542,37 14,38.3431458 14,40 C14,40.5522847 13.5522847,41 13,41 L7,41 C6.44771525,41 6,40.5522847 6,40 L6,38 Z" id="Shape"/><path d="M20,49 L34,49 C35.1045695,49 36,48.1045695 36,47 L36,43 C36,41.8954305 35.1045695,41 34,41 L20,41 C18.8954305,41 18,41.8954305 18,43 L18,47 C18,48.1045695 18.8954305,49 20,49 Z M20,43 L34,43 L34,47 L20,47 L20,43 Z" id="Shape"/></g></g></svg>
