<?xml version="1.0" encoding="UTF-8"?>
<svg width="182px" height="133px" viewBox="0 0 182 133" version="1.1" xmlns="http://www.w3.org/2000/svg" xmlns:xlink="http://www.w3.org/1999/xlink">
    <!-- Generator: Sketch 57.1 (83088) - https://sketch.com -->
    <title>Group 3</title>
    <desc>Created with Sketch.</desc>
    <g id="Page-1" stroke="none" stroke-width="1" fill="none" fill-rule="evenodd">
        <g id="Group-3" transform="translate(-1.000000, 0.000000)">
            <g id="Group-2" transform="translate(1.000000, 0.000000)">
                <rect id="Rectangle" fill="#3FDDBF" x="52" y="0" width="26" height="26"></rect>
                <rect id="Rectangle-Copy" fill="#DD3F81" x="156" y="0" width="26" height="26"></rect>
                <rect id="Rectangle-Copy-9" fill="#5F50D0" x="156" y="26" width="26" height="26"></rect>
                <rect id="Rectangle-Copy-2" fill="#DD3F81" x="130" y="26" width="26" height="26"></rect>
                <rect id="Rectangle-Copy-19" fill="#DD3F81" x="104" y="0" width="26" height="26"></rect>
                <rect id="Rectangle-Copy-7" fill="#DD3F81" x="156" y="52" width="26" height="26"></rect>
                <rect id="Rectangle-Copy-10" fill="#5F50D0" x="156" y="78" width="26" height="26"></rect>
                <rect id="Rectangle-Copy-17" fill="#5F50D0" x="104" y="78" width="26" height="26"></rect>
                <rect id="Rectangle-Copy-13" fill="#5F50D0" x="130" y="0" width="26" height="26"></rect>
                <rect id="Rectangle-Copy-20" fill="#00B9DE" x="78" y="0" width="26" height="26"></rect>
                <rect id="Rectangle-Copy-22" fill="#DD3F81" x="52" y="0" width="26" height="26"></rect>
                <rect id="Rectangle-Copy-21" fill="#5F50D0" x="78" y="0" width="26" height="26"></rect>
                <rect id="Rectangle-Copy-4" fill="#DD3F81" x="78" y="78" width="26" height="26"></rect>
                <rect id="Rectangle" fill="#3FDDBF" x="0" y="0" width="26" height="26"></rect>
                <rect id="Rectangle-Copy-3" fill="#DD3F81" x="26" y="26" width="26" height="26"></rect>
                <rect id="Rectangle-Copy-5" fill="#DD3F81" x="26" y="78" width="26" height="26"></rect>
                <rect id="Rectangle-Copy-11" fill="#5F50D0" x="0" y="78" width="26" height="26"></rect>
                <rect id="Rectangle-Copy-14" fill="#5F50D0" x="52" y="78" width="26" height="26"></rect>
                <rect id="Rectangle-Copy-12" fill="#5F50D0" x="0" y="26" width="26" height="26"></rect>
                <rect id="Rectangle-Copy-20" fill="#00B9DE" x="26" y="0" width="26" height="26"></rect>
                <rect id="Rectangle-Copy-22" fill="#DD3F81" x="0" y="0" width="26" height="26"></rect>
                <rect id="Rectangle-Copy-21" fill="#5F50D0" x="26" y="0" width="26" height="26"></rect>
                <rect id="Rectangle-Copy-4" fill="#DD3F81" x="0" y="52" width="26" height="26"></rect>
                <rect id="Rectangle-Copy-15" fill="#DD3F81" x="130" y="78" width="26" height="26"></rect>
            </g>
            <text id="InsureMotion" font-family="Ubuntu-Regular, Ubuntu" font-size="25" font-weight="normal" letter-spacing="2.52380917" fill="#000000">
                <tspan x="0" y="132">InsureMotion</tspan>
            </text>
        </g>
    </g>
</svg>